HIERARCHY
ROOT SpineBase
{
  OFFSET 0.000000 0.000000 0.000000
  CHANNELS 6 Xposition Yposition Zposition Zrotation Xrotation Yrotation
  JOINT SpineMid
  {
    OFFSET -0.000000 31.422474 0.000000
    CHANNELS 3 Zrotation Xrotation Yrotation
    JOINT SpineShoulder
    {
      OFFSET -0.004458 23.330356 -0.856069
      CHANNELS 3 Zrotation Xrotation Yrotation
      JOINT Neck
      {
        OFFSET -0.002836 7.736538 -0.640285
        CHANNELS 3 Zrotation Xrotation Yrotation
        JOINT Head
        {
          OFFSET 6.403057 12.276550 0.213302
          CHANNELS 3 Zrotation Xrotation Yrotation
          End Site
          {
            OFFSET 0 0 0
          }
        }
      }
      JOINT ShoulderLeft
      {
        OFFSET -11.137925 -1.579077 -13.850847
        CHANNELS 3 Zrotation Xrotation Yrotation
        JOINT ElbowLeft
        {
          OFFSET -6.087260 -23.337150 -6.701028
          CHANNELS 3 Zrotation Xrotation Yrotation
          JOINT WristLeft
          {
            OFFSET 4.955755 -23.272213 -3.967004
            CHANNELS 3 Zrotation Xrotation Yrotation
            JOINT HandLeft
            {
              OFFSET 1.579418 -7.897260 1.114116
              CHANNELS 3 Zrotation Xrotation Yrotation
              JOINT HandTipLeft
              {
                OFFSET 1.387842 -7.583729 1.258600
                CHANNELS 3 Zrotation Xrotation Yrotation
                End Site
                {
                  OFFSET 0 0 0
                }
              }
              JOINT ThumbLeft
              {
                OFFSET 4.054819 1.986623 4.406984
                CHANNELS 3 Zrotation Xrotation Yrotation
                End Site
                {
                  OFFSET 0 0 0
                }
              }
            }
          }
        }
      }
      JOINT ShoulderRight
      {
        OFFSET 14.117246 -5.734694 10.043566
        CHANNELS 3 Zrotation Xrotation Yrotation
        JOINT ElbowRight
        {
          OFFSET 0.127728 -28.207937 0.880358
          CHANNELS 3 Zrotation Xrotation Yrotation
          JOINT WristRight
          {
            OFFSET -1.816092 -26.910145 -7.647485
            CHANNELS 3 Zrotation Xrotation Yrotation
            JOINT HandRight
            {
              OFFSET -1.477844 -4.752436 -2.563123
              CHANNELS 3 Zrotation Xrotation Yrotation
              JOINT HandTipRight
              {
                OFFSET -0.197108 -3.636098 0.942531
                CHANNELS 3 Zrotation Xrotation Yrotation
                End Site
                {
                  OFFSET 0 0 0
                }
              }
              JOINT ThumbRight
              {
                OFFSET 4.361309 -1.121747 1.005747
                CHANNELS 3 Zrotation Xrotation Yrotation
                End Site
                {
                  OFFSET 0 0 0
                }
              }
            }
          }
        }
      }
    }
  }
  JOINT HipLeft
  {
    OFFSET -5.072233 1.841318 -8.394767
    CHANNELS 3 Zrotation Xrotation Yrotation
    JOINT KneeLeft
    {
      OFFSET -11.299106 -30.989906 -1.166071
      CHANNELS 3 Zrotation Xrotation Yrotation
      JOINT AnkleLeft
      {
        OFFSET -8.019399 -35.500099 4.616437
        CHANNELS 3 Zrotation Xrotation Yrotation
        JOINT FootLeft
        {
          OFFSET 5.055545 -5.688381 -8.462629
          CHANNELS 3 Zrotation Xrotation Yrotation
          End Site
          {
            OFFSET 0 0 0
          }
        }
      }
    }
  }
  JOINT HipRight
  {
    OFFSET 5.542936 -0.012114 1.252278
    CHANNELS 3 Zrotation Xrotation Yrotation
    JOINT KneeRight
    {
      OFFSET -8.406144 -33.146238 2.209028
      CHANNELS 3 Zrotation Xrotation Yrotation
      JOINT AnkleRight
      {
        OFFSET -8.987814 -32.883292 3.330672
        CHANNELS 3 Zrotation Xrotation Yrotation
        JOINT FootRight
        {
          OFFSET 3.901709 -7.330743 -1.017869
          CHANNELS 3 Zrotation Xrotation Yrotation
          End Site
          {
            OFFSET 0 0 0
          }
        }
      }
    }
  }
}
MOTION
Frames: 14
Frame Time: 0.033333
-25.940434 74.129939 336.082015 -3.696163 -0.140711 -16.214340 -1.731963 -0.431966 16.006442 -0.577069 0.273066 -0.285523 13.421182 -3.869643 2.689370 0.000000 0.000000 0.000000 1.117559 -9.669358 4.048136 -1.603675 17.691257 0.316152 -0.337748 1.496550 -2.152833 0.930722 6.772688 1.585200 0.000000 0.000000 0.000000 0.000000 0.000000 0.000000 0.739698 -5.668287 0.047423 4.021447 5.230338 0.451549 -20.666943 2.004760 10.760524 12.780831 11.745901 -13.133851 0.000000 0.000000 0.000000 0.000000 0.000000 0.000000 4.569224 2.971386 15.551284 -0.657904 -1.345975 0.673827 -13.536501 -10.785515 10.604770 0.000000 0.000000 0.000000 3.292959 -3.660200 17.220242 1.893114 2.777401 -0.621800 -7.521866 9.064057 5.189505 0.000000 0.000000 0.000000
-26.083556 74.115740 336.047739 -4.387150 0.003878 -14.028054 -2.006257 -0.276720 13.796556 -0.531530 0.271945 -0.323706 13.919441 -4.517727 3.032297 0.000000 0.000000 0.000000 0.704601 -10.559474 4.494698 -1.851601 19.027188 0.632406 0.249650 1.758458 -2.487804 -0.683826 8.382046 1.744362 0.000000 0.000000 0.000000 0.000000 0.000000 0.000000 1.723370 -6.577516 0.089517 3.519455 4.588697 0.667368 -19.684694 4.434045 10.530396 14.681978 12.093033 -11.906620 0.000000 0.000000 0.000000 0.000000 0.000000 0.000000 5.870165 3.009327 13.302788 -1.124952 -1.071709 0.638519 -11.801628 -3.433010 14.996027 0.000000 0.000000 0.000000 4.043001 -3.867069 15.083582 1.805002 2.752853 -0.616179 -6.861128 9.644248 5.206044 0.000000 0.000000 0.000000
-26.242394 74.096927 336.066150 -5.162853 0.121247 -11.681470 -2.281630 -0.136670 11.423850 -0.513932 0.251928 -0.369658 15.004118 -4.799371 3.224099 0.000000 0.000000 0.000000 0.501941 -11.471625 4.945380 -2.256184 20.483935 1.045688 2.092059 1.964738 -2.560252 -3.410273 10.513638 1.817954 0.000000 0.000000 0.000000 0.000000 0.000000 0.000000 3.186074 -6.890873 0.210171 1.993412 4.216376 1.110171 -18.285882 4.702639 10.240340 16.803225 14.875411 -11.614365 0.000000 0.000000 0.000000 0.000000 0.000000 0.000000 7.163300 3.030053 10.877336 -1.367735 -0.833637 0.638978 -10.938994 3.613226 19.116742 0.000000 0.000000 0.000000 4.910294 -4.119015 12.800803 1.686407 2.779955 -0.624947 -6.550855 10.014405 5.194088 0.000000 0.000000 0.000000
-26.428248 74.066791 336.054814 -6.033945 0.250297 -8.981617 -2.400035 -0.010014 8.699731 -0.473452 0.192538 -0.414873 15.984013 -4.853150 3.314596 0.000000 0.000000 0.000000 0.425479 -12.172735 5.323363 -2.732468 21.634475 1.470319 4.557961 2.448405 -2.336664 -8.487503 10.237978 0.544655 0.000000 0.000000 0.000000 0.000000 0.000000 0.000000 4.805547 -7.269668 0.347291 0.324738 3.073108 1.569300 -15.623427 5.397202 9.510836 13.553921 18.195585 -11.657028 0.000000 0.000000 0.000000 0.000000 0.000000 0.000000 8.548880 2.923896 8.104489 -1.635982 -0.550304 0.622103 -10.704009 8.877735 22.351802 0.000000 0.000000 0.000000 5.878028 -4.601724 10.207767 1.555074 2.901378 -0.659178 -6.172527 10.419274 5.151807 0.000000 0.000000 0.000000
-26.624922 74.023893 336.078736 -6.927403 0.317740 -6.405031 -2.426984 0.085359 6.097939 -0.439389 0.124738 -0.459258 16.929832 -4.659096 3.297920 0.000000 0.000000 0.000000 0.261270 -12.912464 5.729307 -2.880600 23.118286 1.839174 5.916207 1.684735 -2.600642 -10.476430 11.484738 0.576170 0.000000 0.000000 0.000000 0.000000 0.000000 0.000000 6.713729 -6.945307 0.537217 -1.676735 -0.200559 2.041468 -15.453849 12.300574 9.748705 12.289676 13.643386 -10.611517 0.000000 0.000000 0.000000 0.000000 0.000000 0.000000 9.901307 2.795286 5.455555 -1.759594 -0.397720 0.652138 -11.411727 12.621938 25.492597 0.000000 0.000000 0.000000 6.837005 -5.047025 7.726607 1.410745 2.941925 -0.670821 -6.019655 10.629150 5.036998 0.000000 0.000000 0.000000
-26.814716 73.970535 336.129581 -7.767235 0.309446 -4.071103 -2.346139 0.148529 3.738876 -0.395182 0.061855 -0.495776 17.412965 -4.454650 3.282181 0.000000 0.000000 0.000000 0.116247 -13.525279 6.082931 -3.111645 24.498085 2.236771 7.422891 1.572694 -2.594357 -11.863811 11.671199 0.239751 0.000000 0.000000 0.000000 0.000000 0.000000 0.000000 8.221429 -6.745111 0.672876 -3.467917 -2.047556 2.444992 -16.048890 17.458135 10.393877 15.732324 7.370931 -9.058249 0.000000 0.000000 0.000000 0.000000 0.000000 0.000000 11.094886 2.621951 3.071962 -1.743890 -0.172031 0.663754 -12.671084 14.298903 28.094828 0.000000 0.000000 0.000000 7.721816 -5.449373 5.477643 1.311756 2.916161 -0.662556 -6.293420 10.949450 5.065999 0.000000 0.000000 0.000000
-26.977718 73.905733 336.206375 -8.492479 0.210872 -2.051699 -2.199156 0.162183 1.691202 -0.333903 -0.003444 -0.523135 17.606147 -4.207094 3.263698 0.000000 0.000000 0.000000 0.148327 -13.854469 6.337562 -3.537680 25.602257 2.673568 8.215483 1.822593 -2.592846 -12.495882 12.034963 0.135663 0.000000 0.000000 0.000000 0.000000 0.000000 0.000000 9.207102 -6.533629 0.745527 -3.920881 -2.763840 2.478059 -14.000577 14.237090 9.814222 15.260785 11.271878 -9.825400 0.000000 0.000000 0.000000 0.000000 0.000000 0.000000 12.015830 2.574544 0.973244 -1.522095 -0.089304 0.725972 -14.473125 13.788365 30.207676 0.000000 0.000000 0.000000 8.503323 -5.755874 3.525715 1.140764 2.948822 -0.672022 -6.494997 11.202887 5.136287 0.000000 0.000000 0.000000
-27.118897 73.831364 336.269353 -9.137917 0.057410 -0.226737 -2.047701 0.143055 -0.166757 -0.304951 -0.027031 -0.545559 17.754411 -3.861024 3.193115 0.000000 0.000000 0.000000 0.214311 -14.286905 6.598880 -3.810149 27.052961 3.116486 8.278745 0.251588 -3.187154 -12.567801 12.868572 0.643934 0.000000 0.000000 0.000000 0.000000 0.000000 0.000000 9.797893 -6.750336 0.767213 -3.614905 -1.947612 2.379306 -14.103419 13.227063 9.783086 18.034133 9.906511 -9.150222 0.000000 0.000000 0.000000 0.000000 0.000000 0.000000 12.773164 2.501516 -0.909605 -1.276264 0.060820 0.753659 -15.126134 15.945997 31.968787 0.000000 0.000000 0.000000 9.167612 -6.043575 1.758335 1.015974 2.986124 -0.681726 -6.762985 11.150961 5.046558 0.000000 0.000000 0.000000
-27.221079 73.772634 336.339186 -9.651543 -0.077060 1.145106 -1.849108 0.139474 -1.562970 -0.244914 -0.042815 -0.556494 17.622974 -3.584870 3.116992 0.000000 0.000000 0.000000 0.182093 -14.682816 6.795257 -3.870383 27.824631 3.239887 8.768642 -0.964942 -3.504143 -13.231869 14.279975 1.247946 0.000000 0.000000 0.000000 0.000000 0.000000 0.000000 9.762426 -7.182882 0.734116 -2.411337 -0.136358 2.069773 -14.898962 8.104215 10.431574 19.792485 13.447374 -10.862601 0.000000 0.000000 0.000000 0.000000 0.000000 0.000000 13.355003 2.433843 -2.323518 -1.053081 0.220654 0.765164 -16.396888 13.434807 32.455798 0.000000 0.000000 0.000000 9.663116 -6.221666 0.412139 0.975650 2.922430 -0.662631 -7.536426 11.005506 5.039015 0.000000 0.000000 0.000000
-27.286389 73.727997 336.388159 -10.010685 -0.194020 2.115991 -1.625405 0.135699 -2.550285 -0.177146 -0.036562 -0.556329 17.420215 -3.592795 3.171976 0.000000 0.000000 0.000000 0.182006 -14.994240 6.908398 -4.193172 28.211370 3.381904 9.938801 0.160063 -3.007916 -11.913719 12.056959 0.348778 0.000000 0.000000 0.000000 0.000000 0.000000 0.000000 9.397683 -7.772225 0.672413 -0.888143 2.132312 1.635047 -16.364365 5.337347 10.861018 21.531013 15.788340 -11.647611 0.000000 0.000000 0.000000 0.000000 0.000000 0.000000 13.720226 2.424107 -3.336884 -0.888919 0.325629 0.772414 -16.837341 13.120878 32.885673 0.000000 0.000000 0.000000 10.049387 -6.304765 -0.548277 0.883128 2.813153 -0.631999 -6.855278 5.603430 1.524228 0.000000 0.000000 0.000000
-27.340590 73.702532 336.412067 -10.258107 -0.275915 2.858133 -1.430561 0.148231 -3.301333 -0.147966 -0.020891 -0.554708 17.245922 -3.633260 3.216700 0.000000 0.000000 0.000000 0.129971 -15.042327 6.949369 -4.340432 28.191782 3.420038 10.913788 2.163641 -2.297822 -9.993767 7.999186 -1.021964 0.000000 0.000000 0.000000 0.000000 0.000000 0.000000 8.788881 -8.810705 0.575445 1.039211 5.042532 1.043238 -18.515817 1.806967 11.586218 23.263016 18.785161 -13.162611 0.000000 0.000000 0.000000 0.000000 0.000000 0.000000 14.019566 2.386414 -4.105931 -0.867403 0.440342 0.759056 -17.144675 12.854073 33.262165 0.000000 0.000000 0.000000 10.327360 -6.358803 -1.286044 0.777538 2.676660 -0.594354 -8.906619 13.078724 6.495570 0.000000 0.000000 0.000000
-27.384712 73.683786 336.420885 -10.395688 -0.317875 3.368701 -1.232318 0.173961 -3.811568 -0.113932 0.007769 -0.546241 16.866432 -3.791762 3.286946 0.000000 0.000000 0.000000 -0.019340 -15.000805 6.938370 -4.380703 28.105469 3.440796 11.037504 3.716651 -1.889924 -8.152677 6.322777 -1.257707 0.000000 0.000000 0.000000 0.000000 0.000000 0.000000 8.158142 -9.761907 0.478322 2.601705 7.359485 0.508082 -20.866784 -2.326942 12.665325 26.029123 22.775205 -15.700424 0.000000 0.000000 0.000000 0.000000 0.000000 0.000000 14.209361 2.355385 -4.637002 -0.912412 0.468663 0.757384 -17.310815 12.712239 33.528629 0.000000 0.000000 0.000000 10.509701 -6.423813 -1.785279 0.710161 2.521228 -0.550490 -11.633051 18.424644 10.658691 0.000000 0.000000 0.000000
-27.411464 73.674556 336.423107 -10.486174 -0.320672 3.611067 -1.111234 0.174519 -4.053469 -0.093280 0.028974 -0.541003 16.958687 -3.857682 3.316987 0.000000 0.000000 0.000000 -0.010727 -14.993930 6.917833 -4.577055 28.029494 3.515556 11.500899 4.894964 -1.503632 -7.378031 5.812265 -1.318009 0.000000 0.000000 0.000000 0.000000 0.000000 0.000000 7.801557 -10.370708 0.417590 3.206588 8.716866 0.304489 -22.124131 -4.445658 13.204876 27.520494 25.728676 -17.371839 0.000000 0.000000 0.000000 0.000000 0.000000 0.000000 14.303666 2.245615 -4.852582 -0.879936 0.513219 0.744659 -17.441472 12.695113 33.671974 0.000000 0.000000 0.000000 10.667691 -6.454603 -2.018583 0.620724 2.355780 -0.504576 -14.013327 22.103761 13.920368 0.000000 0.000000 0.000000
-27.449918 73.660940 336.442921 -10.565062 -0.314967 3.675121 -1.019920 0.168378 -4.117323 -0.081198 0.042505 -0.538067 17.283439 -3.713797 3.235116 0.000000 0.000000 0.000000 0.065524 -14.829718 6.865865 -4.740809 27.746140 3.548588 11.820510 6.211853 -1.102196 -7.184845 3.950246 -1.971359 0.000000 0.000000 0.000000 0.000000 0.000000 0.000000 7.699458 -10.555822 0.400389 3.321450 8.894462 0.279555 -23.189879 -5.192495 13.822440 28.332783 26.772265 -18.464749 0.000000 0.000000 0.000000 0.000000 0.000000 0.000000 14.406385 2.193707 -4.904069 -0.891851 0.534520 0.738282 -17.474667 12.695306 33.702564 0.000000 0.000000 0.000000 10.853655 -6.464893 -2.070541 0.489332 2.269586 -0.481874 -15.378408 24.263197 15.941596 0.000000 0.000000 0.000000
